<svg width="13" height="17" viewBox="0 0 13 17" fill="none" xmlns="http://www.w3.org/2000/svg">
<path d="M13 5.85664V16.1434C13 16.6165 12.6388 17 12.1932 17H0.806817C0.361202 17 0 16.6165 0 16.1434V5.85664C0 5.38351 0.361202 5.00001 0.806817 5.00001H12.1932C12.6388 4.99821 13 5.38351 13 5.85664V5.85664Z" fill="#222222"/>
<path d="M12.6674 6.00655V7.28732V10.23V13.4823V15.6976C12.6674 15.8385 12.6838 15.9986 12.6526 16.1378C12.5868 16.4406 12.3368 16.6512 12.0441 16.6547H11.9569H10.4093H7.6102H4.48532H1.95754H1.20923C1.09576 16.6547 0.97241 16.6669 0.860569 16.6495C0.554667 16.6025 0.332639 16.3188 0.329361 15.9969V15.8994V15.2225V12.5705V9.26943V6.67829V6.07272C0.329361 5.98745 0.33265 5.9074 0.35403 5.82387C0.431326 5.54196 0.678005 5.35576 0.952661 5.35229C1.32433 5.34707 1.69766 5.35229 2.06936 5.35229H4.6399H7.77109H10.5291H11.9895C12.0372 5.35229 12.0882 5.35055 12.1359 5.35752C12.4418 5.40102 12.6638 5.68294 12.6671 6.00659C12.6704 6.23107 12.9993 6.23107 12.996 6.00659C12.9911 5.58373 12.7444 5.20958 12.3694 5.06168C12.2527 5.0147 12.1293 5.00077 12.006 5.00077H11.5208H9.30386H6.21868H3.21562H1.24867C1.15 5.00077 1.04968 4.99903 0.951001 5.00077C0.559572 5.00599 0.212561 5.25658 0.0661959 5.64291C0.0168583 5.77342 0.000411383 5.9109 0.000411383 6.05012V7.75028V10.8878V14.0705V15.9081C0.000411383 15.9534 -0.00123369 15.9969 0.00205554 16.0421C0.02508 16.4615 0.288218 16.8269 0.668111 16.954C0.832574 17.0097 1.0036 16.9992 1.17466 16.9992H3.03142H6.00816H9.118H11.4221H11.9763H12.0487C12.4483 16.994 12.8019 16.733 12.9417 16.3362C13.0108 16.1396 12.9993 15.9308 12.9993 15.7254V14.8536V11.9405V8.6239V6.33382V6.00317C12.996 5.78217 12.6671 5.78217 12.6671 6.00665L12.6674 6.00655Z" fill="#222222"/>
<path d="M4.31216 6.82238V5.57746V3.73771C4.31216 3.51672 4.30868 3.29573 4.33651 3.07473C4.32955 3.12445 4.32433 3.17233 4.31738 3.22205C4.35043 2.96607 4.41305 2.71929 4.50698 2.4799L4.4548 2.61249C4.52438 2.44122 4.60787 2.27547 4.70528 2.12077C4.7279 2.08394 4.75399 2.04895 4.77834 2.01212C4.83053 1.93477 4.74703 2.04343 4.74529 2.05632C4.74703 2.03974 4.7766 2.01396 4.78878 1.99923C4.84444 1.92741 4.90359 1.85927 4.96447 1.79481C5.02361 1.7322 5.08449 1.67327 5.14885 1.61618C5.16625 1.60145 5.18365 1.58671 5.20278 1.57014C5.24975 1.52778 5.09493 1.65485 5.16103 1.60513C5.19756 1.57751 5.23409 1.54804 5.27236 1.52042C5.41848 1.41545 5.57503 1.32889 5.73682 1.25523L5.61157 1.31048C5.83597 1.21103 6.07081 1.14473 6.31259 1.10975C6.26562 1.11711 6.22039 1.12264 6.17343 1.13C6.41522 1.09685 6.657 1.09685 6.89881 1.13C6.85184 1.12264 6.80662 1.11711 6.75965 1.10975C7.00144 1.14474 7.23454 1.21103 7.46066 1.31048L7.33542 1.25523C7.49719 1.32889 7.65375 1.41729 7.79988 1.52042C7.83467 1.54436 7.86772 1.57198 7.90251 1.59777C7.97557 1.65301 7.87294 1.56462 7.86076 1.56277C7.87642 1.56462 7.90077 1.59592 7.91468 1.60881C7.98252 1.66774 8.04688 1.73036 8.10777 1.79481C8.16691 1.85743 8.22258 1.92188 8.2765 1.99002C8.29042 2.00844 8.30433 2.02685 8.31999 2.04711C8.35999 2.09683 8.23997 1.93293 8.28694 2.00291C8.31303 2.04158 8.34086 2.08026 8.36695 2.12077C8.4661 2.27547 8.54786 2.44121 8.61744 2.61249C8.60004 2.56829 8.58265 2.52409 8.56525 2.4799C8.65919 2.71746 8.72181 2.96609 8.75486 3.22205C8.7479 3.17233 8.74268 3.12445 8.73572 3.07473C8.76008 3.27178 8.76008 3.46882 8.76008 3.66588V4.44118V6.3638V6.82234C8.76008 7.11147 9.00013 7.38771 9.28192 7.37481C9.56545 7.36192 9.80376 7.13172 9.80376 6.82234V4.34173C9.80376 4.04708 9.8055 3.75243 9.80376 3.45963C9.80028 2.58856 9.48717 1.75249 8.934 1.10978C8.3739 0.463391 7.5946 0.0876831 6.77876 0.0121845C6.0134 -0.0596368 5.20799 0.188976 4.59744 0.680694C3.95209 1.20002 3.47373 1.94955 3.3311 2.80405C3.26326 3.20552 3.27022 3.60146 3.27022 4.0066V6.76159V6.82237C3.27022 7.11149 3.51027 7.38773 3.79206 7.37483C4.07386 7.36194 4.31218 7.13174 4.31218 6.82237L4.31216 6.82238Z" fill="#222222"/>
</svg>
