<svg width="232" height="139" viewBox="0 0 232 139" fill="none" xmlns="http://www.w3.org/2000/svg">
<path fill-rule="evenodd" clip-rule="evenodd" d="M229.663 0.255747C228.881 0.745746 227.934 6.21875 227.117 14.9877L225.815 28.9397L221.159 35.9317C218.597 39.7777 215.397 44.2267 214.045 45.8187C210.874 49.5527 208.389 48.7877 208.389 44.0787C208.389 39.8697 211.358 26.4247 212.288 26.4247C212.661 26.4247 213.069 24.9617 213.194 23.1747C213.728 15.5057 219.489 5.12675 222.261 6.83875C223.434 7.56275 222.777 13.0797 220.788 19.2097C219.122 24.3467 219.117 24.4247 220.45 24.4247C221.993 24.4247 224.064 18.7247 224.829 12.3727C225.408 7.56775 225.225 6.57375 223.475 4.99075C221.582 3.27875 221.29 3.26674 218.944 4.80274C217.566 5.70474 215.809 7.67674 215.04 9.18374C213.884 11.4517 210.694 21.0967 209.833 24.9247C209.709 25.4747 208.883 28.6897 207.997 32.0687C205.673 40.9367 205.855 46.9387 208.504 48.7927C212.133 51.3327 216.016 48.6847 222.2 39.4547L225.904 33.9247L226.404 47.8437C226.753 57.5587 227.275 61.8847 228.13 62.1687C229.072 62.4807 229.281 58.7257 229.031 45.9117C228.852 36.7477 229.104 27.3767 229.59 25.0867C231.435 16.3867 231.674 12.4497 230.447 10.9717C229.503 9.83475 229.49 8.70175 230.393 5.97175C231.779 1.77475 231.442 -0.857254 229.663 0.255747ZM201.518 10.3307C200.651 10.8727 199.813 14.5497 199.228 20.3847C198.431 28.3197 197.714 30.7057 194.003 37.7537C190.04 45.2827 186.296 49.1147 184.18 47.8087C183.74 47.5367 183.543 40.3637 183.745 31.8697C183.953 23.0837 183.721 16.4247 183.207 16.4247C181.461 16.4247 181.052 20.7917 179.753 53.3087C179.167 67.9967 179.276 70.6207 180.462 70.2277C181.508 69.8817 181.939 67.3287 182.151 60.2187C182.432 50.8217 182.474 50.6747 184.901 50.6747C188.131 50.6747 189.958 49.0697 194.29 42.4247L197.875 36.9247L198.637 49.8517C199.058 56.9607 199.591 62.9687 199.824 63.2017C200.058 63.4347 200.784 63.2947 201.439 62.8897C202.305 62.3557 202.423 59.9397 201.872 54.0397C200.447 38.7647 200.478 31.9177 202.012 22.7687C203.749 12.4147 203.615 9.01974 201.518 10.3307ZM171.222 21.6747C170.948 24.2177 170.726 28.0707 170.544 33.4867C170.381 38.3117 169.985 39.3237 167.549 41.1227L164.741 43.1967L165.994 35.5607C167.482 26.4987 167.669 21.4247 166.517 21.4247C165.717 21.4247 162.339 39.6887 162.346 43.9717C162.35 46.3557 154.389 54.6287 154.257 52.3777C153.932 46.8387 154.766 35.9487 155.805 32.1747C156.394 30.0327 156.218 29.4247 155.01 29.4247C152.538 29.4247 152.219 30.7897 151.786 43.1967C151.447 52.9457 151.079 55.1457 149.607 56.2357C147.918 57.4887 147.921 57.6107 149.668 58.9057C151.271 60.0917 151.459 61.4947 151.17 70.0937C150.894 78.3127 151.086 79.9247 152.341 79.9247C153.582 79.9247 153.856 77.9697 153.923 68.6557C154.002 57.6727 154.076 57.3117 156.863 54.4057C158.435 52.7667 160.02 51.4247 160.387 51.4247C160.753 51.4247 160.834 56.8247 160.568 63.4247C160.156 73.5907 160.31 75.4247 161.57 75.4247C162.792 75.4247 163.084 73.3327 163.213 63.6747C163.393 50.0587 164.101 46.6667 167.184 44.6207L169.422 43.1357L168.872 51.0307C168.57 55.3727 167.952 61.5307 167.5 64.7157C166.713 70.2477 167.272 72.2117 169.277 70.9727C170.131 70.4457 170.661 66.6397 171.858 52.4247C172.789 41.3707 173.499 38.5147 175.47 37.8907C178.068 37.0657 177.875 35.0577 175.262 35.7397C173.219 36.2737 173.182 36.0767 173.865 28.3567C174.477 21.4517 174.36 20.4247 172.962 20.4247C172.08 20.4247 171.296 20.9877 171.222 21.6747ZM135.399 49.0597C134.258 50.5087 133.324 52.0837 133.324 52.5597C133.324 53.0357 132.433 53.4247 131.342 53.4247C128.574 53.4247 127.941 56.8337 128.575 68.3227C129.095 77.7427 130.897 84.4257 133.322 85.9237C134.243 86.4917 134.263 86.1767 133.406 84.5767C132.791 83.4277 132.335 81.2357 132.392 79.7067C132.45 78.1767 132.185 75.3077 131.804 73.3307C130.978 69.0437 133.544 55.6087 136.226 50.1747C138.414 45.7447 138.217 45.4797 135.399 49.0597ZM77.7238 49.7237C76.0444 50.9347 70.865 55.1107 66.214 59.0057C61.564 62.8997 53.9315 69.1527 49.2525 72.8997C33.0686 85.8607 25.6322 94.2248 28.0983 96.6888C28.8099 97.3997 30.006 97.1357 31.9366 95.8407C36.2303 92.9597 39.331 91.4247 40.8593 91.4247C41.6219 91.4247 42.2465 90.9958 42.2465 90.4727C42.2465 89.9487 43.5976 89.6908 45.249 89.8997C46.9004 90.1087 48.2516 89.8667 48.2516 89.3627C48.2516 87.9057 53.5862 88.6457 55.4598 90.3627C56.3966 91.2217 57.8638 92.5078 58.7196 93.2207C59.7775 94.1017 60.0667 95.3517 59.6233 97.1207C59.21 98.7637 59.3411 99.4937 59.9786 99.0997C61.8893 97.9197 56.0062 118.654 53.1198 123.271C51.026 126.622 49.2665 125.915 49.1464 121.675C48.9622 115.176 49.3685 112.402 51.3392 106.679C53.6392 99.9997 53.7253 98.4247 51.7936 98.4247C50.2283 98.4247 47.8733 105.096 46.7153 112.808C46.34 115.312 45.3972 117.538 44.5795 117.851C43.4995 118.265 43.2783 117.904 43.7337 116.471C46.3229 108.318 43.2123 101.615 37.4283 102.884C35.7509 103.252 33.8413 104.2 33.1857 104.989C32.5291 105.779 31.3882 106.425 30.6495 106.425C25.329 106.425 24.8365 133.493 30.1251 135.228C30.9548 135.501 31.239 135.237 30.8297 134.575C30.4524 133.965 30.5735 132.663 31.0999 131.682C31.7505 130.466 31.6063 128.829 30.6455 126.546C27.9122 120.052 29.1382 111.676 33.4529 107.365C36.6637 104.157 39.5902 103.628 41.8171 105.854C43.4295 107.464 43.8128 112.892 42.2465 111.925C41.696 111.585 41.2126 112.121 41.1715 113.116C41.0364 116.388 40.2527 119.542 39.0257 121.751C38.3611 122.947 37.9177 124.276 38.0409 124.705C38.5263 126.408 35.0523 131.567 33.7542 131.069C32.1608 130.458 31.1039 132.592 32.1568 134.294C33.0796 135.785 40.8112 129.863 40.608 127.822C40.533 127.065 40.8633 126.689 41.3437 126.985C41.8231 127.282 43.1212 126.039 44.2291 124.224C46.1968 121 46.2429 120.983 46.2459 123.484C46.2519 127.209 48.4638 129.81 50.9559 129.02C53.378 128.252 58.4103 119.17 60.6672 111.493C63.5867 101.561 62.2136 93.8897 56.7449 89.5927C53.4651 87.0147 45.9766 86.7197 39.7823 88.9237C37.6015 89.6997 35.6128 90.1297 35.3626 89.8797C35.1113 89.6297 35.0943 89.2987 35.3235 89.1437C35.5537 88.9887 37.5604 87.3017 39.7833 85.3937C42.0072 83.4857 46.0147 80.1247 48.689 77.9247C51.3643 75.7247 55.8501 71.8848 58.6585 69.3907C61.4669 66.8967 65.7916 63.2367 68.2687 61.2587C70.7459 59.2797 74.0347 56.4827 75.577 55.0427C77.1183 53.6027 79.4353 52.4247 80.7244 52.4247C82.8462 52.4247 84.2824 50.7767 84.2824 48.3427C84.2824 46.7337 80.8815 47.4497 77.7238 49.7237ZM143.633 51.5117C143.905 61.5047 140.573 81.1287 138.045 84.4327C137.375 85.3067 137.825 84.9808 139.045 83.7077C141.395 81.2547 142.897 76.7237 144.402 67.5447C145.571 60.4137 145.575 50.3517 144.409 48.5117C143.811 47.5687 143.553 48.5667 143.633 51.5117ZM119.332 50.8727C118.399 53.3267 113.648 69.7657 111.298 78.6747C110.608 81.2877 109.685 83.4247 109.246 83.4247C107.943 83.4247 107.03 72.9997 107.49 63.3837C107.992 52.8977 106.417 51.2497 103.947 59.6747C101.739 67.2037 100.679 104.425 102.673 104.425C104.594 104.425 105.27 101.253 105.286 92.1747C105.3 84.4727 105.797 83.3207 108.11 85.6317C110.172 87.6917 111.954 84.6657 115.258 73.4927C116.954 67.7547 118.479 62.9237 118.646 62.7567C118.813 62.5907 118.751 70.7727 118.508 80.9397C118.182 94.5017 118.373 99.4247 119.22 99.4247C119.856 99.4247 120.55 98.8627 120.762 98.1747C120.973 97.4877 121.398 86.0127 121.706 72.6747C122.249 49.1177 121.749 44.5227 119.332 50.8727ZM53.4691 51.9057C47.3788 54.7387 38.6764 60.2807 32.39 65.3307C28.5077 68.4497 27.9362 68.6427 27.0855 67.1257C25.6012 64.4757 24.3812 65.1067 23.6705 68.8937C23.1831 71.4877 21.5958 73.5527 17.3702 77.0887C0.741911 91.0007 -0.880479 92.6117 0.302534 94.0357C1.88289 95.9387 3.20002 95.7787 3.27908 93.6747C3.33413 92.1997 18.6182 78.7168 21.5667 77.5417C22.1432 77.3117 22.2794 78.7117 21.906 81.0417C21.2885 84.9027 20.2917 105.829 19.8152 124.925C19.6781 130.425 19.2157 135.712 18.7884 136.675C18.1859 138.034 18.4831 138.425 20.1205 138.425C22.3955 138.425 22.2413 139.546 22.7237 119.425C23.026 106.812 24.3832 85.8527 25.2769 79.9847C26.2758 73.4367 28.1664 71.0697 37.8737 64.2217C45.0028 59.1927 58.8747 51.4247 60.7273 51.4247C61.572 51.4247 62.2636 50.9747 62.2636 50.4247C62.2636 48.7657 59.0589 49.3057 53.4691 51.9057ZM68.4489 76.6647C68.625 77.8967 69.5949 79.0617 70.6037 79.2537C72.1411 79.5467 72.2682 79.2867 71.3894 77.6457C70.8129 76.5687 70.6258 75.4037 70.9731 75.0557C71.3204 74.7087 70.8229 74.4247 69.8671 74.4247C68.6391 74.4247 68.2237 75.0817 68.4489 76.6647ZM69.2155 90.1747C69.1855 91.6867 68.609 99.8077 67.9334 108.221C67.2589 116.634 67.0077 124.004 67.376 124.599C69.0014 127.228 70.0322 123.692 70.6948 113.205C71.0862 107.001 71.6156 98.6627 71.8698 94.6747C72.2561 88.6307 72.079 87.4247 70.8019 87.4247C69.8111 87.4247 69.2506 88.3957 69.2155 90.1747ZM42.5918 123.968C42.2655 124.817 41.7841 125.297 41.5218 125.035C41.2596 124.773 41.3417 124.078 41.705 123.492C42.6918 121.896 43.2683 122.206 42.5918 123.968Z" fill="#222222"/>
</svg>
