<svg width="154" height="20" viewBox="0 0 154 20" fill="none" xmlns="http://www.w3.org/2000/svg">
<path d="M37.1901 8.09137L33.7501 5.39209L31.1401 8.82201L32.1401 9.83677L33.2301 8.30447C33.3601 9.20762 33.3001 9.47146 33.3001 9.78604C33.3001 10.4558 33.1401 11.1052 32.8301 11.6938C32.5201 12.2824 32.0701 12.7796 31.5201 13.1449C30.9701 13.5102 30.3501 13.7335 29.6901 13.7944C29.0401 13.8553 28.3801 13.7538 27.7801 13.4899L26.5601 15.0425C27.4601 15.5296 28.4601 15.7732 29.4701 15.7427C30.4801 15.7224 31.4801 15.4281 32.3501 14.9005C33.2201 14.3728 33.9401 13.6219 34.4401 12.7289C34.9401 11.8359 35.2001 10.8211 35.2001 9.78604C35.2001 9.22791 35.1501 8.66979 35.0601 8.12182L36.3701 9.23806L37.1801 8.08123L37.1901 8.09137Z" fill="#222222"/>
<path d="M27.4201 11.9273L26.9701 10.1007L25.4301 10.4863C25.3001 9.72523 25.3901 8.94386 25.6801 8.23352C25.9701 7.52318 26.4601 6.91432 27.0901 6.47797C27.7201 6.04162 28.4501 5.79807 29.2101 5.77778C29.9701 5.75748 30.7201 5.95029 31.3701 6.34605L32.5701 4.8239C31.6001 4.17445 30.4701 3.82943 29.3101 3.83957C28.1501 3.83957 27.0201 4.19474 26.0601 4.85434C25.1001 5.51394 24.3501 6.43738 23.9101 7.52318C23.4701 8.60898 23.3501 9.80641 23.5801 10.9632L22.0601 11.3489L22.5101 13.1754L24.0801 12.7797L24.5501 14.3424L26.3301 13.7944L25.8901 12.323L27.4401 11.9374L27.4201 11.9273Z" fill="#222222"/>
<path d="M22.34 3.95117L17.87 15.5601H13.95L11.67 8.84235L11.45 6.57942H10.76L10.52 8.79161L8.35 15.5703H4.29L0 3.98162L3.33 3.96132L6.24 12.4143V12.394H6.93L9.55 3.96132H12.88L15.44 12.394H16.13L16.15 12.4143L19.08 3.96132H22.35L22.34 3.95117Z" fill="#222222"/>
<path d="M41.9001 3.97147V5.49362L41.1901 7.19843H41.7601C42.8601 4.74269 44.6201 3.71777 46.5301 3.71777C48.2401 3.71777 49.7801 4.58033 50.4501 7.05636H51.1001C51.9501 4.97609 53.7201 3.71777 55.7901 3.71777C58.8801 3.71777 60.9901 5.53421 60.9901 9.34974V15.55H57.9901V9.83682C57.9901 7.50286 57.2201 6.12277 54.9601 6.12277C52.9501 6.12277 51.4901 7.73626 51.4901 9.85712V15.55H48.4901V9.81653C48.4901 7.48256 47.6801 6.08218 45.4201 6.08218C43.1601 6.08218 41.9001 7.9798 41.9001 9.38018V15.5398H38.8501V3.97147H41.8901H41.9001Z" fill="#222222"/>
<path d="M68.01 8.46651C70.67 8.46651 72.68 9.68423 74.06 10.6077C74.08 10.2322 74.06 9.41024 74.06 9.08552C74.06 7.02554 73.06 6.18328 70.44 6.18328H64.51L64.49 3.96094H71.52C75.38 3.96094 77.11 5.58457 77.11 9.3798V13.2765H79.12V15.5902H75.54V15.5699L75.15 15.5902C74.5 15.5902 74.22 14.8697 74.22 14.3928C74.22 13.7332 74.61 12.5154 74.81 12.211L74.2 11.8863C72.84 14.9813 70.1 15.783 68.19 15.783C65.69 15.783 63.25 14.3826 63.25 11.9066C63.25 9.51172 65.53 8.4868 68.01 8.4868V8.46651ZM69.35 13.9868C72.26 13.9868 73.49 11.5311 73.49 11.5311C73.49 11.5311 71.15 9.98866 69.1 9.98866C68.23 9.98866 66.3 10.2728 66.3 11.9269C66.3 13.2867 67.8 13.9868 69.35 13.9868Z" fill="#222222"/>
<path d="M94.95 8.93366V15.4282H91.94V9.57296C91.94 8.19288 91.72 5.97054 88.89 5.97054C85.7 5.97054 84.01 8.81189 84.01 10.263V15.4383H80.96V3.79893H84.01V5.67625L83.56 6.93456H84.25C85.55 4.49912 87.4 3.57568 89.84 3.57568C92.5 3.57568 94.94 4.71222 94.94 8.93366H94.95Z" fill="#222222"/>
<path d="M74.52 2.78462H75.77L77.17 0.53125H75.03L74.52 2.78462Z" fill="#222222"/>
<path d="M102.113 18.3623C101.642 18.3623 101.271 18.29 101 18.1597V17.0524C101.357 17.1537 101.727 17.2044 102.113 17.2044C102.605 17.2044 102.983 17.0524 103.239 16.7484C103.496 16.4444 103.625 16.003 103.625 15.4312V4.29297H104.901V15.3227C104.901 16.2852 104.659 17.0379 104.181 17.5662C103.703 18.0946 103.011 18.3623 102.105 18.3623H102.113Z" fill="#222222"/>
<path d="M111.106 15.5826C109.886 15.5826 108.931 15.2063 108.224 14.4536C107.518 13.7009 107.169 12.6587 107.169 11.3198C107.169 9.98091 107.497 8.90255 108.153 8.11368C108.802 7.32481 109.687 6.92676 110.785 6.92676C111.812 6.92676 112.632 7.27415 113.231 7.9617C113.83 8.64924 114.13 9.56115 114.13 10.6829V11.4863H108.46C108.488 12.4706 108.731 13.2088 109.194 13.7226C109.658 14.2292 110.307 14.4825 111.149 14.4825C112.033 14.4825 112.91 14.2944 113.773 13.918V15.047C113.331 15.2425 112.917 15.38 112.525 15.4596C112.133 15.5464 111.655 15.5826 111.106 15.5826ZM110.771 7.98341C110.107 7.98341 109.58 8.20053 109.187 8.64201C108.795 9.07625 108.567 9.68418 108.495 10.4586H112.796C112.796 9.66247 112.618 9.0473 112.268 8.62753C111.919 8.20053 111.42 7.99064 110.771 7.99064V7.98341Z" fill="#222222"/>
<path d="M122.973 15.4304L121.461 10.5307C121.368 10.234 121.19 9.55369 120.926 8.48981H120.862C120.662 9.38 120.484 10.0675 120.334 10.5452L118.78 15.4304H117.339L115.092 7.07853H116.397C116.925 9.17735 117.332 10.7768 117.61 11.8696C117.888 12.9697 118.045 13.7079 118.088 14.0843H118.152C118.209 13.7948 118.295 13.4184 118.416 12.9625C118.537 12.5065 118.644 12.1374 118.737 11.8696L120.249 7.07853H121.597L123.066 11.8696C123.344 12.7454 123.537 13.4763 123.636 14.0698H123.701C123.722 13.8889 123.772 13.6066 123.865 13.223C123.95 12.8394 124.471 10.7913 125.427 7.07129H126.717L124.442 15.4232H122.966L122.973 15.4304Z" fill="#222222"/>
<path d="M131.689 15.5826C130.47 15.5826 129.514 15.2063 128.808 14.4536C128.102 13.7009 127.752 12.6587 127.752 11.3198C127.752 9.98091 128.081 8.90255 128.737 8.11368C129.386 7.32481 130.27 6.92676 131.368 6.92676C132.395 6.92676 133.216 7.27415 133.815 7.9617C134.414 8.64924 134.713 9.56115 134.713 10.6829V11.4863H129.043C129.072 12.4706 129.314 13.2088 129.778 13.7226C130.242 14.2292 130.891 14.4825 131.732 14.4825C132.616 14.4825 133.494 14.2944 134.357 13.918V15.047C133.914 15.2425 133.501 15.38 133.109 15.4596C132.716 15.5464 132.238 15.5826 131.689 15.5826ZM131.354 7.98341C130.691 7.98341 130.163 8.20053 129.771 8.64201C129.379 9.07625 129.15 9.68418 129.079 10.4586H133.38C133.38 9.66247 133.201 9.0473 132.852 8.62753C132.502 8.20053 132.003 7.99064 131.354 7.99064V7.98341Z" fill="#222222"/>
<path d="M138.086 15.4304H136.838V3.57568H138.086V15.4304Z" fill="#222222"/>
<path d="M144.483 6.92676C144.847 6.92676 145.175 6.95571 145.468 7.02084L145.296 8.19329C144.954 8.11368 144.655 8.07749 144.398 8.07749C143.735 8.07749 143.164 8.35251 142.686 8.90255C142.215 9.45259 141.98 10.1329 141.98 10.9507V15.4306H140.732V7.07874H141.759L141.902 8.62753H141.959C142.265 8.08473 142.629 7.66497 143.064 7.36823C143.492 7.0715 143.97 6.92676 144.483 6.92676Z" fill="#222222"/>
<path d="M145.704 7.07853H147.037L148.842 11.8407C149.234 12.9263 149.484 13.7152 149.576 14.1928H149.64C149.705 13.9323 149.84 13.4908 150.047 12.8612C150.254 12.2315 150.931 10.3064 152.087 7.07129H153.42L149.883 16.5811C149.534 17.522 149.12 18.1878 148.656 18.5786C148.186 18.9695 147.615 19.1721 146.93 19.1721C146.552 19.1721 146.174 19.1287 145.803 19.0418V18.0286C146.082 18.0865 146.388 18.1227 146.731 18.1227C147.586 18.1227 148.2 17.6378 148.564 16.6608L149.02 15.4738L145.704 7.07853Z" fill="#222222"/>
</svg>
